<svg fill="none" height="20" viewBox="0 0 20 20" width="20" xmlns="http://www.w3.org/2000/svg"><g fill="#374151"><path d="m13 7h-6v6h6z"/><path clip-rule="evenodd" d="m7 2c0-.55228.44772-1 1-1s1 .44772 1 1v1h2v-1c0-.55228.4477-1 1-1s1 .44772 1 1v1h2c1.1046 0 2 .89543 2 2v2h1c.5523 0 1 .44772 1 1s-.4477 1-1 1h-1v2h1c.5523 0 1 .4477 1 1s-.4477 1-1 1h-1v2c0 1.1046-.8954 2-2 2h-2v1c0 .5523-.4477 1-1 1s-1-.4477-1-1v-1h-2v1c0 .5523-.44772 1-1 1s-1-.4477-1-1v-1h-2c-1.10457 0-2-.8954-2-2v-2h-1c-.55228 0-1-.4477-1-1s.44772-1 1-1h1v-2h-1c-.55228 0-1-.44772-1-1s.44772-1 1-1h1v-2c0-1.10457.89543-2 2-2h2zm-2 3h10v10h-10z" fill-rule="evenodd"/></g></svg>