<?xml version="1.0" encoding="UTF-8"?>
<svg version="1.1" xmlns="http://www.w3.org/2000/svg" width="48" height="48">
<path d="M0 0 C1.98 0 3.96 0 6 0 C6 1.65 6 3.3 6 5 C15.9 5 25.8 5 36 5 C36 3.35 36 1.7 36 0 C37.98 0 39.96 0 42 0 C42.45471532 3.91055176 42.38920876 5.49699559 39.9375 8.66552734 C36.26758067 11.58206397 34.33332432 11.64363488 29.6875 11.6640625 C28.6504895 11.67123795 28.6504895 11.67123795 27.5925293 11.67855835 C26.13685824 11.68194736 24.68111004 11.6728145 23.22558594 11.65185547 C21.00542503 11.62506546 18.79031739 11.65162647 16.5703125 11.68359375 C15.15103058 11.68028946 13.73175179 11.67388281 12.3125 11.6640625 C11.02988281 11.65842285 9.74726563 11.6527832 8.42578125 11.64697266 C4.14129299 10.8378297 2.63902947 9.41062071 0 6 C-0.3125 2.6875 -0.3125 2.6875 0 0 Z " fill="#036CC1" transform="translate(3,32)"/>
<path d="M0 0 C1.98 0 3.96 0 6 0 C6 5.61 6 11.22 6 17 C7.65 17 9.3 17 11 17 C10.65657251 20.09084737 9.74044345 21.32444569 7.75 23.8125 C5 26 5 26 2.5 26.125 C-0.79337016 24.64298343 -2.69820467 22.76215439 -5 20 C-5 19.01 -5 18.02 -5 17 C-3.35 17 -1.7 17 0 17 C0 11.39 0 5.78 0 0 Z " fill="#25ADEA" transform="translate(21,5)"/>
<path d="M0 0 C1.98 0 3.96 0 6 0 C6.375 2.6875 6.375 2.6875 6 6 C4.176017 8.06398076 2.27236161 9.39041053 0 11 C0 7.37 0 3.74 0 0 Z " fill="#28B0E9" transform="translate(39,32)"/>
<path d="M0 0 C1.98 0 3.96 0 6 0 C6 3.63 6 7.26 6 11 C1.77202073 8.00518135 1.77202073 8.00518135 0 6 C-0.375 2.6875 -0.375 2.6875 0 0 Z " fill="#28B0E9" transform="translate(3,32)"/>
</svg>
