<?xml version="1.0" standalone="no"?>
<!DOCTYPE svg PUBLIC "-//W3C//DTD SVG 20010904//EN"
 "http://www.w3.org/TR/2001/REC-SVG-20010904/DTD/svg10.dtd">
<svg version="1.0" xmlns="http://www.w3.org/2000/svg"
 width="48.000000pt" height="48.000000pt" viewBox="0 0 48.000000 48.000000"
 preserveAspectRatio="xMidYMid meet">

<g transform="translate(0.000000,48.000000) scale(0.100000,-0.100000)"
fill="#000000" stroke="none">
<path d="M209 443 c-170 -5 -164 4 -165 -204 -2 -202 -12 -190 175 -197 221
-8 226 -3 219 229 -5 168 -10 181 -72 177 -17 -1 -88 -4 -157 -5z m197 -17
c17 -13 19 -28 19 -175 0 -209 13 -196 -190 -195 -107 0 -159 4 -167 12 -16
16 -21 274 -7 320 13 39 21 41 169 45 63 1 124 4 136 5 11 1 29 -4 40 -12z"/>
<path d="M117 308 c-2 -27 1 -51 10 -65 10 -18 11 -23 1 -23 -7 -1 0 -11 16
-24 l29 -24 -34 -7 -34 -8 35 -15 c42 -17 109 -11 145 12 14 9 34 36 44 59 54
122 54 121 26 124 -11 1 -31 5 -45 8 -25 6 -63 -18 -72 -46 -5 -16 -64 3 -94
32 l-22 20 -5 -43z"/>
</g>
</svg>
